<svg width="800" height="800" viewBox="0 0 800 800" fill="none" xmlns="http://www.w3.org/2000/svg">
<path d="M255.12 609.837L222.883 248.258H577.115L544.844 609.78L399.782 649.996L255.12 609.837Z" fill="#E44D26"/>
<path d="M400 619.259L517.217 586.762L544.795 277.824H400V619.259Z" fill="#F16529"/>
<path d="M400 411.93H341.318L337.266 366.519H400V322.172H288.801L289.862 334.069L300.762 456.275H400V411.93ZM400 527.102L399.806 527.153L350.417 513.817L347.26 478.449H302.743L308.956 548.079L399.796 573.297L400 573.24V527.102Z" fill="#EBEBEB"/>
<path d="M255.842 150H278.378V172.266H298.993V150H321.53V217.426H298.994V194.848H278.379V217.426H255.843L255.842 150ZM351.166 172.359H331.326V150H393.553V172.359H373.704V217.426H351.167L351.166 172.359ZM403.429 150H426.928L441.383 173.691L455.823 150H479.331V217.426H456.888V184.006L441.383 207.979H440.995L425.479 184.006V217.426H403.429V150ZM490.547 150H513.09V195.139H544.782V217.426H490.547V150Z" fill="white"/>
<path d="M399.848 411.93V456.275H454.455L449.308 513.789L399.848 527.139V573.275L490.76 548.079L491.427 540.587L501.848 423.838L502.93 411.93H490.979H399.848ZM399.848 322.172V366.519H506.965L507.854 356.551L509.875 334.069L510.936 322.172H399.848Z" fill="white"/>
</svg>
