<svg width="800" height="800" viewBox="0 0 800 800" fill="none" xmlns="http://www.w3.org/2000/svg">
<g clip-path="url(#clip0_2545_3208)">
<path d="M200 200H600V600H200V200Z" fill="#F7DF1E"/>
<path d="M305.176 534.267L335.785 515.746C341.69 526.216 347.062 535.073 359.95 535.073C372.3 535.073 380.09 530.241 380.09 511.448V383.638H417.677V511.981C417.677 550.914 394.858 568.635 361.563 568.635C331.493 568.635 314.033 553.06 305.176 534.267ZM438.096 530.241L468.706 512.521C476.763 525.676 487.233 535.346 505.76 535.346C521.335 535.346 531.265 527.556 531.265 516.819C531.265 503.93 521.061 499.365 503.881 491.848L494.484 487.816C467.36 476.273 449.373 461.784 449.373 431.162C449.373 402.972 470.852 381.492 504.414 381.492C528.312 381.492 545.5 389.816 557.849 411.562L528.579 430.356C522.135 418.813 515.157 414.248 504.414 414.248C493.411 414.248 486.427 421.232 486.427 430.356C486.427 441.638 493.411 446.229 509.519 453.181L518.915 457.213C550.865 470.902 568.858 484.864 568.858 516.26C568.858 550.095 542.274 568.616 506.566 568.616C471.646 568.616 449.106 551.975 438.096 530.222" fill="black"/>
</g>
<defs>
<clipPath id="clip0_2545_3208">
<rect width="400" height="400" fill="white" transform="translate(200 200)"/>
</clipPath>
</defs>
</svg>
