<svg width="36" height="36" viewBox="0 0 36 36" fill="none" xmlns="http://www.w3.org/2000/svg">
<rect x="0.5" y="0.5" width="35" height="35" rx="17.5" fill="white"/>
<rect x="0.5" y="0.5" width="35" height="35" rx="17.5" stroke="black"/>
<path fill-rule="evenodd" clip-rule="evenodd" d="M15.9365 12.1148L24.3465 17.2898C24.4678 17.3643 24.568 17.4687 24.6375 17.593C24.7071 17.7173 24.7436 17.8574 24.7436 17.9998C24.7436 18.1422 24.7071 18.2822 24.6375 18.4065C24.568 18.5308 24.4678 18.6352 24.3465 18.7098L15.9365 23.8848C15.8102 23.9625 15.6655 24.0051 15.5172 24.0082C15.369 24.0113 15.2226 23.9748 15.0932 23.9024C14.9638 23.83 14.856 23.7245 14.781 23.5966C14.706 23.4687 14.6665 23.3231 14.6665 23.1748V12.8248C14.6665 12.6765 14.706 12.5309 14.781 12.403C14.856 12.2751 14.9638 12.1695 15.0932 12.0972C15.2226 12.0248 15.369 11.9883 15.5172 11.9914C15.6655 11.9945 15.8102 12.0371 15.9365 12.1148Z" fill="black"/>
</svg>
