<svg width="475" height="120" viewBox="0 0 475 120" fill="none" xmlns="http://www.w3.org/2000/svg">
<path d="M123.51 60.3506C121.667 73.4786 121.667 84.4995 113.887 95.3797C112.754 97.1945 111.554 98.8907 110.28 100.523C109.005 102.065 107.66 103.546 106.247 104.961C104.637 106.577 102.935 108.102 100.792 109.473C75.3801 119.766 40.1165 128.58 19.724 105.066C18.1134 103.491 16.5799 101.839 15.1347 100.123C2.11706 84.6788 -3.92568 63.9167 2.72933 45.5375C3.45192 43.5628 4.27104 41.6074 5.16739 39.6768C9.64911 30.0293 16.0918 21.0328 22.5454 13.4814C23.5218 12.4913 24.5036 11.5729 25.7309 9.95675C29.1453 7.51317 32.8134 5.40332 36.6911 3.67682C38.63 2.81357 40.6212 2.04685 42.6594 1.3877C64.3647 -1.45854 90.8138 -1.45854 106.253 16.6062C107.869 18.2224 109.394 19.9241 110.826 21.7085C114.047 25.7214 116.78 30.1397 118.942 34.8751C119.662 36.4527 120.319 38.0689 120.87 39.743C119.466 44.8287 126.077 49.2359 123.512 55.3724C123.579 57.0548 123.579 58.7096 123.512 60.3534L123.51 60.3506Z" fill="#4BF9F4"/>
<path d="M53.6979 53.2352C53.4993 53.2352 53.3007 53.2131 53.0994 53.1634C51.7507 52.8352 50.9233 51.4756 51.2515 50.1269C51.2708 50.0497 51.7231 48.1991 52.8815 44.9502C54.8148 39.5197 55.0575 39.3322 55.645 38.8826C56.7454 38.0359 58.3258 38.24 59.1725 39.3404C59.8344 40.2009 59.8537 41.3538 59.3048 42.2225C59.1973 42.4487 58.7725 43.403 57.6197 46.6408C56.5606 49.6139 56.1414 51.3018 56.1387 51.3184C55.8574 52.4657 54.8286 53.2352 53.6979 53.2352Z" fill="black"/>
<path d="M71.4165 54.4019C71.4165 54.4019 71.4027 54.4019 71.3945 54.4019C70.0072 54.3909 68.8902 53.2574 68.8985 51.8701C68.8985 51.7901 68.9178 49.8871 69.2984 46.4589C69.9355 40.7279 70.1285 40.4907 70.5974 39.917C71.4744 38.8414 73.0575 38.6787 74.1359 39.5557C74.9771 40.2424 75.2612 41.3594 74.9247 42.3302C74.8695 42.5757 74.6765 43.6017 74.2986 47.0161C73.9511 50.1519 73.929 51.8922 73.929 51.9115C73.9153 53.2932 72.7928 54.4047 71.4138 54.4047L71.4165 54.4019ZM74.5027 43.0887C74.5027 43.0887 74.5027 43.0887 74.5027 43.0914C74.5027 43.0914 74.5027 43.0914 74.5027 43.0887Z" fill="black"/>
<path d="M62.7857 71.2588C62.7637 71.2588 62.7444 71.2588 62.7251 71.2588C54.8565 71.2423 50.088 67.7838 47.4734 64.8824C44.6796 61.7824 43.7253 58.7238 43.626 58.3846C43.2344 57.0524 43.9984 55.6542 45.3305 55.2625C46.6626 54.8709 48.0609 55.6348 48.4525 56.967C48.5656 57.331 51.4201 66.2034 62.7361 66.2283C62.7527 66.2283 62.7692 66.2283 62.7857 66.2283C72.3835 66.2283 75.6876 59.9925 75.8227 59.7277C76.435 58.4811 77.9353 57.9736 79.182 58.5859C80.4286 59.1982 80.9415 60.7123 80.3293 61.9617C80.1417 62.3423 75.6242 71.2616 62.7857 71.2616V71.2588Z" fill="black"/>
<path d="M185.6 28.3662C185.19 34.5469 185.054 39.0769 185.19 41.9686C185.116 43.4083 185.426 44.2894 186.121 44.5997C186.804 44.91 187.561 44.9224 188.393 44.6493C190.316 44.2398 192.463 43.8798 194.834 43.5696C197.204 43.2593 199.997 42.9987 203.236 42.8001C209.764 42.5271 214.828 42.5147 218.427 42.7505C222.026 42.9863 227.549 43.2842 234.958 43.6317C237.081 43.7062 238.111 44.7983 238.049 46.933C238.049 47.8265 237.875 48.5588 237.527 49.1421C237.18 49.7255 236.423 50.0854 235.256 50.2219C227.015 50.2964 221.207 50.1225 217.844 49.7006C216.193 49.4896 214.207 49.3903 211.874 49.3903V49.6013C212.147 52.9026 212.395 55.7199 212.594 58.0532C222.349 57.8422 232.886 57.7429 244.217 57.7429C245.247 57.7429 246.128 58.0035 246.848 58.5124C247.568 59.0336 247.928 59.8404 247.928 60.9325C247.791 63.2037 246.724 64.4324 244.738 64.6434C236.634 64.7799 226.593 64.9536 214.604 65.1646C202.615 65.3756 189.423 65.8472 174.989 66.6042C173.338 66.4677 172.382 65.4005 172.109 63.4147C172.171 62.0371 172.519 61.0318 173.139 60.374C173.76 59.7162 174.579 59.3935 175.609 59.3935C185.153 58.8474 195.082 58.4379 205.383 58.1524C205.172 55.8812 204.862 53.1756 204.452 50.0108V49.7006H203.521C200.22 49.775 197.155 50.0729 194.3 50.6314C191.446 51.1775 188.926 51.5994 186.729 51.8725C183.428 52.009 181.082 51.2892 179.668 49.713C178.253 48.1368 177.62 46.4489 177.756 44.6617C177.756 41.5714 177.794 38.3819 177.856 35.0805C177.918 32.8094 178.029 30.414 178.166 27.8698C177.483 27.3858 177.061 26.5666 176.925 25.4C176.987 24.0224 177.384 23.0419 178.104 22.4586C178.824 21.8753 179.705 21.5775 180.735 21.5775H204.378C211.762 21.5775 220.326 21.1306 230.081 20.2371C231.111 20.2371 231.992 20.4977 232.712 21.0066C233.432 21.5278 233.792 22.3345 233.792 23.4267C233.655 25.6979 232.588 26.9265 230.602 27.1375C222.423 27.8946 215.597 28.2918 210.099 28.3166C204.601 28.3538 198.284 28.3662 191.148 28.3662H185.588H185.6ZM206.723 70.402C209.541 70.3399 212.284 70.3648 214.964 70.5013C218.539 70.6378 221.964 70.9109 225.265 71.3205C228.567 71.73 231.173 72.3133 233.097 73.0704C237.354 74.7831 239.997 76.5206 241.027 78.2705C242.057 80.0205 242.541 81.9938 242.467 84.1906C242.603 87.3554 241.424 90.0857 238.917 92.3817C236.41 94.6778 231.793 96.0678 225.067 96.5518C218.204 97.1723 211.737 97.3709 205.693 97.1723C198.619 97.4454 192.265 96.8621 186.63 95.4224C182.646 94.6654 179.73 93.2754 177.868 91.2524C176.019 89.2294 175.15 86.8341 175.287 84.0913C175.287 79.3503 177.247 75.9 181.157 73.7405C185.066 71.581 189.634 70.5013 194.859 70.5013C195.951 70.5013 196.82 70.675 197.44 71.0225C201.151 70.675 204.241 70.4764 206.711 70.402H206.723ZM193.431 76.9923C190.614 77.3398 188.281 77.923 186.432 78.7422C184.098 79.7723 182.857 81.485 182.721 83.8927C182.721 85.6054 183.676 86.9458 185.6 87.9138C187.524 88.8819 189.931 89.3907 192.811 89.4652C196.857 89.9492 199.897 90.2099 201.933 90.2347C203.956 90.2719 206.488 90.2843 209.503 90.2843C214.381 90.4208 219.879 90.1478 225.985 89.4652C228.939 89.1922 231.136 88.6461 232.575 87.8145C234.015 86.983 234.735 85.7916 234.735 84.203C234.797 81.5967 233.258 79.8716 230.093 79.0524C226.928 78.2333 221.989 77.6748 215.262 77.4018C211.688 77.3397 208.821 77.3149 206.661 77.3521C204.502 77.3894 201.598 77.5756 197.961 77.9231C195.69 78.5436 194.188 78.2333 193.431 76.9923Z" fill="black"/>
<path d="M287.851 50.5673C298.226 50.5301 309.868 50.5177 322.775 50.5177C323.731 50.5177 324.562 50.7783 325.245 51.2872C325.928 51.8084 326.275 52.6152 326.275 53.7073C326.201 55.9041 325.171 57.1079 323.185 57.3189C315.291 57.4554 305.71 57.5298 294.441 57.5298C283.172 57.5298 270.612 57.8774 256.737 58.56C255.086 58.4234 254.13 57.3933 253.857 55.4697C253.919 54.092 254.267 53.0992 254.888 52.4787C255.508 51.8581 256.29 51.5478 257.258 51.5478C267.286 50.9273 277.488 50.6046 287.851 50.5673ZM288.161 63.9588C293.039 63.9215 298.5 63.9712 304.544 64.1077C309.967 64.1077 314.001 64.7902 316.644 66.1679C319.288 67.5455 320.641 69.8787 320.715 73.1676C320.504 77.4991 319.015 80.3908 316.235 81.8677C313.455 83.3446 310.65 84.0148 307.833 83.8783L300.311 83.779C295.571 83.7169 290.408 83.7914 284.81 84.0396C279.213 84.2754 274.46 84.6105 270.538 85.0201C267.931 85.1566 266.244 85.6034 265.486 86.3605C264.729 87.1175 264.357 88.1849 264.357 89.5501V92.1315C264.568 93.3726 265.387 93.9559 266.827 93.8815C271.568 93.8194 275.961 93.6208 280.007 93.3105C284.053 93.0003 289.067 92.8762 295.049 92.9507C299.244 92.9507 303.464 92.963 307.721 93.0003C311.978 93.0375 316.508 93.323 321.323 93.8815C323.383 94.4275 324.414 95.7059 324.414 97.6916C324.414 99.8884 323.011 100.993 320.194 100.993C316.967 100.645 312.859 100.397 307.882 100.223C302.905 100.05 298.624 99.9628 295.062 99.9628C289.7 99.9628 285.133 100.099 281.36 100.372C277.587 100.645 273.045 100.856 267.758 100.993C263.501 101.129 260.646 100.496 259.207 99.0816C257.767 97.6792 257.01 95.8424 256.935 93.5712C256.799 92.7521 256.762 90.9649 256.836 88.2097C256.898 85.6654 257.68 83.4935 259.157 81.6691C260.634 79.8447 263.401 78.6657 267.447 78.1196C274.522 77.499 280.777 77.1888 286.2 77.1888C291.624 77.1888 298.214 77.0895 305.983 76.8785C308.18 76.6675 309.793 76.3572 310.824 75.9477C311.854 75.5381 312.375 74.6446 312.375 73.2669C312.3 71.8893 310.898 71.1447 308.155 70.9957C299.567 70.8592 292.269 70.8965 286.262 71.095C280.255 71.306 272.784 71.5418 263.861 71.8148C261.726 71.8148 260.671 70.7475 260.671 68.6252C260.671 67.3221 260.932 66.4285 261.44 65.9445C261.949 65.4604 262.967 65.0881 264.481 64.815C275.403 64.269 283.296 63.9711 288.174 63.9339L288.161 63.9588ZM314.634 47.8369C312.437 47.4273 311.407 46.149 311.543 44.0267C311.953 40.9364 312.176 38.4295 312.214 36.5058C312.251 34.5821 312.3 32.3109 312.363 29.7046C312.152 28.5379 311.779 27.5947 311.233 26.8749C310.687 26.155 309.62 25.8324 308.043 25.8944C300.56 26.1674 294.863 26.3909 290.941 26.5646C287.032 26.7384 281.223 26.7508 273.529 26.6143C271.816 26.6887 270.451 26.7508 269.458 26.8252C268.465 26.8997 267.522 26.8997 266.628 26.8252C264.432 26.8252 263.302 25.6958 263.228 23.4246C263.153 21.6375 263.687 20.5701 264.829 20.235C265.958 19.8875 267.733 19.689 270.141 19.6145C277.699 19.8255 284.264 19.8255 289.874 19.6145C295.471 19.4035 301.639 19.2049 308.366 18.9939C312.623 18.9319 315.354 19.4283 316.557 20.4833C317.761 21.5506 318.667 23.3129 319.288 25.7827C319.424 30.1762 319.412 33.7878 319.238 36.605C319.064 39.4223 318.841 42.2768 318.568 45.1562C318.084 47.0799 316.781 47.9734 314.659 47.8369H314.634Z" fill="black"/>
<path d="M376.403 41.8137C376.329 42.7445 376.229 44.0228 376.093 45.6735C375.609 49.8684 373.846 53.2441 370.793 55.8256C367.74 58.4071 363.086 59.6854 356.831 59.6854C348.379 59.5489 342.583 57.8486 339.418 54.5845C336.254 51.3204 334.926 46.7036 335.397 40.7339C335.67 35.0373 337.557 30.6563 341.069 27.6032C344.569 24.5501 349.682 22.9863 356.421 22.9118C359.859 22.9118 362.701 23.3587 364.973 24.2522C367.244 25.1458 369.192 26.3124 370.843 27.7521C374.281 30.8424 376.167 34.454 376.515 38.5744C376.515 39.8155 376.477 40.8953 376.415 41.8137H376.403ZM355.329 66.4866C359.003 66.4866 362.664 66.3501 366.301 66.077C369.664 65.9405 372.717 65.7295 375.472 65.4565C378.215 65.1834 381.442 65.109 385.153 65.2455C390.303 65.2455 393.84 65.7792 395.764 66.8465C397.688 67.9138 398.892 69.4031 399.376 71.3268C399.649 72.5679 399.822 73.4367 399.897 73.958C399.959 74.4793 400.108 75.2859 400.306 76.3781C400.369 79.1953 399.45 81.1563 397.526 82.2485C395.603 83.3531 393.133 83.9363 390.105 83.9984L378.054 84.0977C366.933 84.4452 361.026 84.5569 360.331 84.4576C359.648 84.3583 356.21 84.5072 350.03 84.9168C348.106 85.3263 346.853 85.7111 346.269 86.0462C345.686 86.3937 345.388 86.9398 345.388 87.6968V89.6578C345.599 90.3404 346.021 90.8616 346.679 91.2091C347.324 91.5566 348.205 91.5815 349.31 91.3084C351.432 90.6879 355.565 90.0425 361.671 89.3475L377.843 88.8263C382.174 88.8263 386.27 88.7766 390.154 88.6773C394.027 88.578 398.408 88.8263 403.285 89.4468C405.271 89.9308 406.239 91.1595 406.164 93.1577C405.891 95.8384 404.551 97.0051 402.143 96.6575C398.78 96.31 394.808 96.0742 390.241 95.9377C385.674 95.8012 381.541 95.7267 377.83 95.7267L361.138 96.3473C358.531 96.6203 356.297 96.9306 354.436 97.2781C352.586 97.6256 350.551 97.8986 348.354 98.0972C346.642 98.0972 345.165 97.9607 343.924 97.6877C342.41 97.4146 341.069 96.7445 339.902 95.6771C338.736 94.6098 337.979 93.046 337.631 90.9857C337.631 89.4716 337.693 87.7961 337.842 85.9345C338.053 84.0853 338.885 82.5215 340.362 81.2432C341.839 79.9773 344.395 79.034 348.032 78.4135C355.515 77.8674 361.597 77.5323 366.263 77.433C370.93 77.3338 377.557 77.2096 386.146 77.0731C388.342 77.1475 390.043 77.1104 391.246 76.9738C392.45 76.8373 392.947 76.1175 392.736 74.8144L392.326 73.5733C391.569 72.6176 390.949 72.0219 390.477 71.8233C389.993 71.6123 388.826 71.513 386.977 71.513C381.479 71.5875 377.433 71.7488 374.827 72.0342C372.221 72.3073 368.435 72.5804 363.496 72.8534C358.966 73.263 355.677 73.4367 353.654 73.3746C351.631 73.3126 348.143 73.3374 343.191 73.474C340.995 73.474 339.828 72.3818 339.692 70.1726C339.692 68.8695 340.051 67.9759 340.771 67.4919C341.491 67.0079 342.745 66.6355 344.532 66.3624C348.032 66.4369 351.618 66.4618 355.292 66.4618L355.329 66.4866ZM345.177 50.1042C347.299 51.8913 350.812 52.847 355.689 52.9835C359.537 53.4675 362.552 52.9214 364.749 51.3328C366.946 49.7567 368.323 47.4855 368.87 44.5317C369.081 43.092 369.105 41.3793 368.969 39.3812C368.894 35.8813 367.542 33.3246 364.898 31.7112C362.255 30.0978 359.487 29.2911 356.608 29.2911C352.624 29.2911 349.36 30.0978 346.815 31.7112C344.271 33.3246 342.869 36.4398 342.596 41.0318C342.186 45.2887 343.042 48.317 345.177 50.0917V50.1042ZM392.363 26.9206C392.289 25.543 392.537 24.4012 393.083 23.4703C393.629 22.5395 394.523 22.0803 395.764 22.0803C396.72 22.0183 397.613 22.2665 398.445 22.8498C399.264 23.4331 399.711 24.6494 399.785 26.511C399.785 31.736 399.884 37.0355 400.095 42.4218C400.306 47.8081 400.617 53.0208 401.026 58.0348C401.163 60.7155 400.207 62.0931 398.147 62.1552C395.814 62.9123 394.262 61.4354 393.505 57.7245C393.232 46.3189 392.847 36.055 392.376 26.9206H392.363Z" fill="black"/>
<path d="M423.593 72.7726C426.373 71.1964 429.178 69.099 431.995 66.4927C435.222 63.3403 437.779 59.7287 439.665 55.6703C441.552 51.6243 442.607 48.2486 442.805 45.5802C442.731 44.5501 442.706 43.2843 442.706 41.7701C442.917 40.3305 442.334 39.6478 440.956 39.7099C431.549 40.3925 422.476 40.74 413.764 40.74C412.324 40.74 411.182 40.5166 410.363 40.0698C409.544 39.623 409.122 38.506 409.122 36.7188C409.333 34.6586 410.698 33.6285 413.242 33.6285C419.907 33.703 430.034 33.4175 443.637 32.8094C445.076 32.8094 446.466 33.2066 447.807 33.9885C449.147 34.7828 449.879 36.483 450.016 39.0893C450.562 41.013 450.562 43.4207 450.016 46.3001C449.606 50.4205 448.303 54.8512 446.107 59.5922C443.91 64.3332 441.912 67.4607 440.137 68.9624C437.183 72.4003 433.274 75.5526 428.396 78.4444C423.519 81.3237 418.269 83.4584 412.634 84.836C410.984 85.32 409.643 84.625 408.613 82.7758C408.266 80.5791 408.886 79.0649 410.462 78.2458C416.432 76.1856 420.813 74.3612 423.593 72.785V72.7726ZM465.418 27.0259C465.592 25.8593 466.609 25.0402 468.459 24.5562C471.139 24.8292 472.48 26.3061 472.48 28.9869C472.889 35.304 473.212 40.2684 473.46 43.8676C473.696 47.4792 473.82 52.369 473.82 58.5496C473.82 65.6239 473.882 70.911 474.031 74.4108C474.168 77.9107 474.441 81.7953 474.85 86.0523C475.123 87.0203 474.95 88.1994 474.329 89.6018C473.708 91.0042 472.616 91.7488 471.028 91.8109C469.24 91.7488 467.999 90.545 467.317 88.1994C466.969 83.9424 466.734 80.0826 466.597 76.6075C466.46 73.1449 466.361 68.0688 466.287 61.4166C466.423 54.8884 466.349 50.1475 466.076 47.1937C465.803 44.2399 465.492 38.8163 465.145 30.9105C465.145 29.4709 465.232 28.1677 465.406 27.0011L465.418 27.0259Z" fill="black"/>
</svg>
